<?xml version="1.0" standalone="no"?>
<!DOCTYPE svg PUBLIC "-//W3C//DTD SVG 20010904//EN"
 "http://www.w3.org/TR/2001/REC-SVG-20010904/DTD/svg10.dtd">
<svg version="1.0" xmlns="http://www.w3.org/2000/svg"
 width="512.000000pt" height="512.000000pt" viewBox="0 0 512.000000 512.000000"
 preserveAspectRatio="xMidYMid meet">

<g transform="translate(0.000000,512.000000) scale(0.100000,-0.100000)"
fill="#000000" stroke="none">
<path d="M2370 5113 c-371 -35 -653 -114 -961 -269 -406 -203 -782 -548 -1029
-944 -179 -286 -309 -655 -362 -1025 -17 -118 -17 -512 0 -630 42 -295 120
-553 242 -800 137 -280 272 -468 494 -691 221 -220 412 -357 681 -489 188 -92
309 -137 500 -185 500 -126 1002 -102 1490 71 149 53 407 182 540 271 299 199
573 480 769 788 72 113 188 353 235 486 201 565 201 1163 0 1728 -47 133 -163
373 -235 486 -211 333 -537 653 -856 843 -413 246 -871 371 -1338 365 -74 0
-151 -3 -170 -5z m902 -603 c44 -13 93 -51 112 -89 31 -61 307 -772 313 -805
8 -49 -20 -118 -62 -154 -18 -17 -69 -44 -112 -60 -43 -17 -215 -85 -383 -152
-168 -66 -323 -123 -346 -127 -55 -7 -122 23 -160 72 -56 74 -42 195 30 250
17 13 126 60 241 105 116 46 214 86 219 90 10 10 -58 41 -171 81 -299 103
-632 83 -918 -55 -263 -127 -446 -309 -576 -571 -184 -373 -166 -805 49 -1165
182 -303 475 -507 830 -577 116 -22 328 -22 444 0 565 111 962 566 1003 1147
8 119 17 149 58 188 78 75 192 70 264 -11 40 -46 47 -83 40 -221 -31 -624
-463 -1190 -1066 -1400 -192 -67 -279 -80 -521 -80 -185 0 -229 3 -316 22
-639 139 -1109 610 -1246 1248 -20 95 -23 136 -23 319 1 178 4 225 23 311 138
635 613 1110 1248 1246 94 20 137 23 314 23 226 0 306 -11 478 -66 52 -17 95
-29 97 -27 1 2 -19 59 -46 128 -53 138 -57 166 -30 225 23 50 58 83 108 100
47 17 58 18 105 5z"/>
</g>
</svg>
