<?xml version="1.0" standalone="no"?>
<!DOCTYPE svg PUBLIC "-//W3C//DTD SVG 20010904//EN"
 "http://www.w3.org/TR/2001/REC-SVG-20010904/DTD/svg10.dtd">
<svg version="1.0" xmlns="http://www.w3.org/2000/svg"
 width="512.000000pt" height="512.000000pt" viewBox="0 0 512.000000 512.000000"
 preserveAspectRatio="xMidYMid meet">

<g transform="translate(0.000000,512.000000) scale(0.100000,-0.100000)"
fill="#000000" stroke="none">
<path d="M1020 4899 c-247 -12 -381 -57 -524 -175 -125 -103 -211 -238 -246
-388 -34 -143 -40 -376 -40 -1776 0 -1400 6 -1633 40 -1776 61 -257 277 -473
534 -534 143 -34 376 -40 1776 -40 1400 0 1633 6 1776 40 257 61 473 277 534
534 34 143 40 376 40 1776 0 1400 -6 1633 -40 1776 -47 199 -189 378 -381 479
-98 51 -209 74 -416 85 -208 11 -2839 11 -3053 -1z m3246 -211 c107 -25 188
-70 270 -152 85 -85 129 -165 152 -280 15 -74 17 -226 17 -1696 0 -1793 3
-1705 -66 -1841 -42 -85 -153 -196 -238 -238 -136 -69 -48 -66 -1841 -66
-1793 0 -1705 -3 -1841 66 -85 42 -196 153 -238 238 -69 136 -66 48 -66 1841
0 1793 -3 1705 66 1841 42 84 153 196 236 237 71 36 125 50 238 62 44 4 791 7
1660 6 1413 -2 1588 -4 1651 -18z"/>
<path d="M2342 4209 c-108 -15 -286 -62 -393 -104 -218 -86 -378 -193 -560
-375 -246 -245 -386 -504 -460 -850 -20 -91 -23 -134 -23 -320 0 -241 13 -330
80 -529 168 -505 598 -918 1107 -1065 179 -52 248 -61 472 -60 236 0 327 14
525 80 504 168 917 598 1064 1107 52 179 61 248 60 472 0 178 -3 226 -22 312
-31 141 -74 269 -133 393 -65 136 -129 235 -238 370 l-20 25 -401 -400 c-220
-220 -400 -403 -400 -407 0 -5 174 -8 386 -8 l386 0 29 -29 c21 -22 29 -39 29
-66 0 -27 -8 -44 -29 -66 l-29 -29 -527 0 -527 0 -29 29 c-22 22 -29 39 -29
67 0 37 14 53 415 454 228 228 415 419 415 423 0 4 -175 7 -389 7 l-389 0 -26
31 c-36 43 -35 91 3 130 l29 29 454 0 453 1 -35 31 c-156 137 -451 274 -705
328 -116 25 -421 35 -543 19z m167 -1663 c15 -8 32 -26 39 -41 28 -61 25 -66
-208 -300 -121 -121 -220 -224 -220 -228 0 -4 86 -7 191 -7 l191 0 30 -30 c27
-28 30 -36 25 -73 -4 -28 -14 -49 -32 -64 -26 -23 -28 -23 -356 -23 l-331 0
-29 29 c-22 22 -29 39 -29 67 0 36 11 49 221 260 l222 222 -192 4 -193 3 -29
33 c-46 51 -34 129 25 152 11 5 162 9 334 9 252 1 318 -2 341 -13z"/>
</g>
</svg>
