<?xml version="1.0" standalone="no"?>
<!DOCTYPE svg PUBLIC "-//W3C//DTD SVG 20010904//EN"
 "http://www.w3.org/TR/2001/REC-SVG-20010904/DTD/svg10.dtd">
<svg version="1.0" xmlns="http://www.w3.org/2000/svg"
 width="512.000000pt" height="512.000000pt" viewBox="0 0 512.000000 512.000000"
 preserveAspectRatio="xMidYMid meet">

<g transform="translate(0.000000,512.000000) scale(0.100000,-0.100000)"
fill="#000000" stroke="none">
<path d="M2215 4819 c-281 -30 -554 -191 -720 -423 -60 -84 -128 -230 -157
-336 -20 -74 -23 -107 -22 -260 0 -160 3 -183 28 -265 99 -330 340 -586 651
-693 124 -42 218 -55 369 -49 175 6 262 27 411 101 283 140 470 377 546 693
27 110 30 310 6 418 -54 244 -178 446 -367 597 -205 166 -481 246 -745 217z
m320 -224 c89 -24 232 -97 303 -155 127 -104 235 -270 277 -425 25 -91 30
-274 11 -364 -61 -287 -263 -521 -529 -612 -222 -76 -427 -62 -637 43 -92 46
-117 64 -206 153 -91 90 -107 111 -152 205 -28 58 -58 134 -67 170 -107 455
176 899 635 996 82 17 282 11 365 -11z"/>
<path d="M2189 2579 c-660 -47 -1256 -477 -1514 -1093 -52 -125 -77 -206 -105
-341 -26 -125 -40 -334 -28 -412 19 -123 98 -227 218 -286 l65 -32 1260 -5
1260 -5 65 -32 c106 -53 207 -75 345 -75 144 0 239 22 362 82 526 259 628 964
196 1360 -151 138 -360 220 -563 220 l-57 0 -99 99 c-250 248 -570 421 -911
490 -80 17 -361 45 -383 39 -3 0 -53 -4 -111 -9z m444 -228 c274 -55 540 -187
751 -374 36 -32 66 -62 66 -65 0 -4 -33 -24 -73 -44 -202 -100 -364 -299 -429
-525 -30 -105 -32 -313 -4 -418 22 -83 72 -196 115 -259 17 -24 31 -47 31 -51
0 -3 -498 -4 -1107 -3 l-1108 3 -47 27 c-85 50 -103 130 -78 338 88 718 656
1293 1372 1389 119 16 386 6 511 -18z m1320 -630 c32 -11 84 -35 114 -52 l55
-32 -438 -438 c-493 -493 -437 -455 -494 -340 -59 118 -76 277 -44 411 51 221
237 409 459 464 87 22 271 15 348 -13z m358 -315 c44 -85 59 -139 66 -242 20
-306 -189 -582 -493 -650 -151 -33 -336 -2 -460 79 l-34 22 437 437 c299 299
440 433 446 425 4 -7 22 -39 38 -71z"/>
</g>
</svg>
